<svg xmlns="http://www.w3.org/2000/svg" width="1200" height="630" viewBox="0 0 1200 630">
  <defs>
    <linearGradient id="bg" x1="0" y1="0" x2="1" y2="1">
      <stop offset="0%" stop-color="#0a1628"/>
      <stop offset="100%" stop-color="#0f2035"/>
    </linearGradient>
    <linearGradient id="accent" x1="0" y1="0" x2="1" y2="0">
      <stop offset="0%" stop-color="#0891B2"/>
      <stop offset="100%" stop-color="#06b6d4"/>
    </linearGradient>
  </defs>
  <rect width="1200" height="630" fill="url(#bg)"/>
  <!-- Accent bar top -->
  <rect x="0" y="0" width="1200" height="4" fill="url(#accent)"/>
  <!-- Logo icon -->
  <rect x="80" y="200" width="56" height="56" rx="10" fill="#0891B2"/>
  <path d="M92 214h32v3H92zm0 8h24v3H92zm0 8h28v3H92z" fill="white"/>
  <path d="M126 218l6-6v18l-6-6z" fill="white" opacity="0.7"/>
  <!-- Product name -->
  <text x="152" y="242" font-family="Inter, system-ui, -apple-system, sans-serif" font-size="48" font-weight="700" fill="#ffffff">Taplio Alt</text>
  <!-- Tagline -->
  <text x="82" y="310" font-family="Inter, system-ui, -apple-system, sans-serif" font-size="32" font-weight="400" fill="#a1a1aa">Schedule smarter, grow your audience</text>
  <!-- Feature pills -->
  <rect x="82" y="370" width="180" height="40" rx="20" fill="rgba(8,145,178,0.15)" stroke="#0891B2" stroke-width="1"/>
  <text x="172" y="396" font-family="Inter, system-ui, sans-serif" font-size="16" font-weight="500" fill="#0891B2" text-anchor="middle">AI Post Writer</text>
  <rect x="280" y="370" width="190" height="40" rx="20" fill="rgba(8,145,178,0.15)" stroke="#0891B2" stroke-width="1"/>
  <text x="375" y="396" font-family="Inter, system-ui, sans-serif" font-size="16" font-weight="500" fill="#0891B2" text-anchor="middle">Post Scheduler</text>
  <rect x="488" y="370" width="200" height="40" rx="20" fill="rgba(8,145,178,0.15)" stroke="#0891B2" stroke-width="1"/>
  <text x="588" y="396" font-family="Inter, system-ui, sans-serif" font-size="16" font-weight="500" fill="#0891B2" text-anchor="middle">Lead Generation</text>
  <rect x="706" y="370" width="170" height="40" rx="20" fill="rgba(8,145,178,0.15)" stroke="#0891B2" stroke-width="1"/>
  <text x="791" y="396" font-family="Inter, system-ui, sans-serif" font-size="16" font-weight="500" fill="#0891B2" text-anchor="middle">Analytics</text>
  <!-- URL -->
  <text x="82" y="560" font-family="Inter, system-ui, sans-serif" font-size="20" font-weight="400" fill="#64748b">taplio-alt.assimetria.com</text>
  <!-- Decorative dots -->
  <circle cx="1050" cy="150" r="80" fill="rgba(8,145,178,0.06)"/>
  <circle cx="1100" cy="400" r="120" fill="rgba(8,145,178,0.04)"/>
</svg>
